<svg xmlns="http://www.w3.org/2000/svg" viewBox="0 0 640 360" role="img" aria-label="Glandulas salivales y saliva">
  <rect width="640" height="360" rx="28" fill="#08263c"/>
  <path d="M205 92c-47 18-75 68-64 119 12 58 69 94 128 81 49-11 83-51 88-98 5-53-22-92-69-109-27-10-56-4-83 7z" fill="#f1a7a2"/>
  <path d="M292 91c47 14 80 54 83 102 3 50-25 92-70 111" fill="none" stroke="#ffd56a" stroke-width="12" stroke-linecap="round"/>
  <path d="M171 133c22 21 48 28 78 18" fill="none" stroke="#fff7e7" stroke-width="18" stroke-linecap="round"/>
  <path d="M164 111c-28-20-58-19-77 2-22 24-12 62 22 73 28 9 58-7 69-39" fill="#eeb66e"/>
  <path d="M400 112c28-20 58-19 77 2 22 24 12 62-22 73-28 9-58-7-69-39" fill="#eeb66e"/>
  <path d="M414 202c-26 34-70 56-118 58" fill="none" stroke="#75e3ff" stroke-width="9" stroke-linecap="round" stroke-dasharray="1 22"/>
  <circle cx="286" cy="229" r="20" fill="#f6c77d"/>
</svg>
