<svg xmlns="http://www.w3.org/2000/svg" viewBox="0 0 640 360" role="img" aria-label="Esofago y peristaltismo">
  <rect width="640" height="360" rx="28" fill="#08263c"/>
  <path d="M317 36c-24 38-27 73-8 106 23 40 19 76-10 112-21 27-23 53-7 79" fill="none" stroke="#d56b43" stroke-width="42" stroke-linecap="round"/>
  <path d="M317 36c-24 38-27 73-8 106 23 40 19 76-10 112-21 27-23 53-7 79" fill="none" stroke="#ffd2a1" stroke-width="18" stroke-linecap="round"/>
  <circle cx="310" cy="142" r="22" fill="#f6c77d"/>
  <path d="M413 79c35 31 42 77 16 116" fill="none" stroke="#76e3ff" stroke-width="11" stroke-linecap="round"/>
  <path d="M429 195c-6-26-20-43-43-54" fill="none" stroke="#76e3ff" stroke-width="11" stroke-linecap="round"/>
  <path d="M198 166c-28 35-27 82 1 119" fill="none" stroke="#76e3ff" stroke-width="11" stroke-linecap="round"/>
</svg>
