<svg xmlns="http://www.w3.org/2000/svg" viewBox="0 0 640 360" role="img" aria-label="Estomago y quimo">
  <rect width="640" height="360" rx="28" fill="#08263c"/>
  <path d="M283 42c48 32 58 79 29 142-20 43 12 74 58 55 72-29 111 39 63 84-53 50-156 29-188-41-20-43-7-84 20-120 28-37 20-70-11-95z" fill="#d98a45"/>
  <path d="M323 84c38 39 30 93-21 128" fill="none" stroke="#8d3f2c" stroke-width="12" stroke-linecap="round"/>
  <path d="M335 248c44 4 82-7 110-34" fill="none" stroke="#ffd56a" stroke-width="11" stroke-linecap="round" stroke-dasharray="1 20"/>
  <path d="M203 87c36 10 64 31 82 62" fill="none" stroke="#ffd2a1" stroke-width="18" stroke-linecap="round"/>
  <circle cx="369" cy="244" r="20" fill="#f6c77d"/>
</svg>
